<?xml version="1.0" standalone="no"?>
<!DOCTYPE svg PUBLIC "-//W3C//DTD SVG 20010904//EN"
 "http://www.w3.org/TR/2001/REC-SVG-20010904/DTD/svg10.dtd">
<svg version="1.0" xmlns="http://www.w3.org/2000/svg"
 width="401.000000pt" height="370.000000pt" viewBox="0 0 401.000000 370.000000"
 preserveAspectRatio="xMidYMid meet">

<g transform="translate(0.000000,370.000000) scale(0.100000,-0.100000)"
fill="#000000" stroke="none">
<path d="M3215 3036 c-111 -21 -213 -52 -404 -120 -286 -102 -450 -139 -679
-152 -64 -4 -124 -10 -131 -14 -29 -15 63 -32 209 -37 223 -8 349 14 697 122
237 74 315 89 458 89 97 1 134 -4 191 -22 246 -76 371 -311 305 -571 -29 -116
-79 -201 -175 -296 -95 -95 -159 -139 -317 -217 -127 -63 -199 -120 -229 -179
-33 -64 -25 -80 16 -31 51 61 105 94 219 136 141 51 189 74 271 127 367 239
466 703 209 986 -111 123 -254 183 -450 189 -74 2 -147 -2 -190 -10z"/>
<path d="M1621 2979 c-245 -19 -483 -97 -648 -215 -86 -61 -193 -175 -243
-260 -74 -125 -102 -210 -108 -331 -8 -170 13 -204 41 -66 60 288 225 495 501
628 249 119 519 151 1051 125 143 -7 274 -10 290 -8 l30 4 -38 17 c-50 23
-218 63 -343 82 -85 12 -408 38 -424 34 -3 -1 -52 -5 -109 -10z"/>
<path d="M1686 2518 c3 -13 19 -48 35 -79 67 -134 130 -315 153 -439 4 -19 11
-104 16 -189 5 -85 12 -157 16 -160 11 -11 44 41 61 98 25 81 25 290 -1 391
-36 144 -113 281 -202 359 -53 47 -90 55 -78 19z"/>
<path d="M2606 2459 c-54 -60 -138 -224 -164 -319 -24 -91 -24 -352 0 -430 21
-68 42 -99 58 -84 6 6 15 75 20 155 17 235 48 385 129 612 17 49 31 95 31 103
0 28 -29 13 -74 -37z"/>
<path d="M3229 2482 c-127 -82 -256 -264 -321 -455 -25 -75 -32 -113 -36 -203
-3 -78 -1 -118 8 -134 12 -22 13 -23 26 -5 7 10 28 61 45 114 82 248 135 358
274 565 47 70 85 131 85 137 0 17 -36 9 -81 -19z"/>
<path d="M560 2346 c-123 -45 -279 -154 -377 -260 -305 -334 -212 -779 183
-872 300 -71 700 165 820 481 14 38 24 80 22 94 -3 23 -8 18 -49 -44 -147
-225 -341 -372 -542 -410 -100 -19 -154 -19 -230 1 -159 41 -252 150 -264 309
-16 210 128 427 425 640 45 32 82 62 82 67 0 11 -29 9 -70 -6z"/>
<path d="M1314 2147 c-3 -8 11 -74 31 -148 19 -74 42 -186 51 -249 22 -157 36
-180 74 -118 44 73 47 229 5 348 -40 113 -141 218 -161 167z"/>
<path d="M1155 1524 c41 -32 173 -93 265 -122 163 -52 248 -65 450 -68 262 -3
378 10 885 102 165 30 309 54 321 54 l20 0 -19 -87 c-27 -130 -34 -373 -13
-488 22 -117 59 -238 100 -328 l33 -72 -341 0 c-207 0 -384 -5 -451 -13 -60
-6 -175 -19 -255 -28 -200 -23 -558 -22 -705 0 -145 23 -343 74 -367 95 -4 3
6 45 22 93 52 154 71 268 77 459 6 182 -2 312 -17 274 -5 -11 -13 -81 -20
-155 -15 -175 -51 -388 -95 -558 -19 -74 -34 -136 -32 -138 1 -1 38 -20 82
-42 174 -87 359 -136 573 -154 184 -15 421 -1 891 52 310 34 434 47 637 66
l62 5 -14 47 c-20 64 -71 337 -86 457 -6 55 -12 205 -13 334 l0 234 -170 -6
c-199 -8 -350 -24 -645 -72 -343 -55 -380 -58 -565 -52 -192 7 -292 24 -487
87 -138 44 -153 47 -123 24z"/>
</g>
</svg>
