<svg version="1.1" id="Layer_1" xmlns="http://www.w3.org/2000/svg" xmlns:xlink="http://www.w3.org/1999/xlink" x="0px" y="0px"
	 width="100%" viewBox="0 0 474 474" enable-background="new 0 0 474 474" xml:space="preserve">
<path fill="#030303" opacity="1.000000" stroke="none" 
	d="
M450.000000,475.000000 
	C444.645081,475.000000 439.290131,475.000000 433.665680,474.653351 
	C429.801941,471.551056 425.799347,469.191803 422.678650,465.976532 
	C399.360718,441.952118 376.222534,417.753326 353.017059,393.619690 
	C338.837921,378.873413 324.639313,364.145905 310.315186,349.270508 
	C308.401733,350.500610 306.738159,351.564087 305.080505,352.636658 
	C274.713165,372.285645 241.484711,383.139191 205.296875,383.594238 
	C143.945435,384.365662 93.161491,361.070099 53.385864,314.442596 
	C2.570444,254.873520 -5.376276,165.674805 34.189354,98.081795 
	C64.528992,46.250263 109.410194,14.683663 168.625595,3.720121 
	C170.520004,3.369378 172.213074,1.931227 174.000000,0.999998 
	C191.354233,1.000000 208.708450,1.000000 226.635849,1.370538 
	C228.847809,2.373676 230.435410,3.301008 232.132874,3.595725 
	C273.470459,10.772885 308.825378,29.344656 337.996094,59.464527 
	C394.937744,118.258865 408.291656,205.652893 371.118774,278.505371 
	C364.508911,291.459534 355.943115,303.415710 348.011658,316.268341 
	C348.644806,316.957794 349.952972,318.440735 351.322296,319.864868 
	C387.203583,357.182617 423.110809,394.475403 458.967102,431.817139 
	C471.704224,445.081818 468.713348,463.839874 452.634796,472.535339 
	C451.611481,473.088715 450.871704,474.166290 450.000000,475.000000 
M99.278221,93.783546 
	C67.841209,127.109016 54.382229,166.668793 60.542580,211.971848 
	C68.716293,272.081116 113.946243,319.123596 173.486008,331.170715 
	C243.689911,345.375610 314.729675,302.791840 335.802673,233.872345 
	C356.506378,166.160583 323.616516,92.766045 259.654846,63.946636 
	C204.433945,39.065594 143.640869,50.221733 99.278221,93.783546 
z"/>
<path fill="#FDFDFD" opacity="1.000000" stroke="none" 
	d="
M173.531342,0.999998 
	C172.213074,1.931227 170.520004,3.369378 168.625595,3.720121 
	C109.410194,14.683663 64.528992,46.250263 34.189354,98.081795 
	C-5.376276,165.674805 2.570444,254.873520 53.385864,314.442596 
	C93.161491,361.070099 143.945435,384.365662 205.296875,383.594238 
	C241.484711,383.139191 274.713165,372.285645 305.080505,352.636658 
	C306.738159,351.564087 308.401733,350.500610 310.315186,349.270508 
	C324.639313,364.145905 338.837921,378.873413 353.017059,393.619690 
	C376.222534,417.753326 399.360718,441.952118 422.678650,465.976532 
	C425.799347,469.191803 429.801941,471.551056 433.198059,474.653351 
	C289.058380,475.000000 145.116760,475.000000 1.087573,475.000000 
	C1.087573,317.122498 1.087573,159.244904 1.087573,1.000000 
	C58.353706,1.000000 115.708191,1.000000 173.531342,0.999998 
z"/>
<path fill="#FDFDFD" opacity="1.000000" stroke="none" 
	d="
M450.468689,475.000000 
	C450.871704,474.166290 451.611481,473.088715 452.634796,472.535339 
	C468.713348,463.839874 471.704224,445.081818 458.967102,431.817139 
	C423.110809,394.475403 387.203583,357.182617 351.322296,319.864868 
	C349.952972,318.440735 348.644806,316.957794 348.011658,316.268341 
	C355.943115,303.415710 364.508911,291.459534 371.118774,278.505371 
	C408.291656,205.652893 394.937744,118.258865 337.996094,59.464527 
	C308.825378,29.344656 273.470459,10.772885 232.132874,3.595725 
	C230.435410,3.301008 228.847809,2.373676 227.104507,1.370538 
	C309.618225,1.000000 392.236420,1.000000 474.927307,1.000000 
	C474.927307,158.999985 474.927307,317.000000 474.925385,475.000000 
	C466.928101,475.000000 458.932709,475.000000 450.468689,475.000000 
z"/>
<path fill="#FDFDFD" opacity="1.000000" stroke="none" 
	d="
M99.530075,93.534241 
	C143.640869,50.221733 204.433945,39.065594 259.654846,63.946636 
	C323.616516,92.766045 356.506378,166.160583 335.802673,233.872345 
	C314.729675,302.791840 243.689911,345.375610 173.486008,331.170715 
	C113.946243,319.123596 68.716293,272.081116 60.542580,211.971848 
	C54.382229,166.668793 67.841209,127.109016 99.530075,93.534241 
z"/>
</svg>